<svg xmlns="http://www.w3.org/2000/svg" viewBox="0 0 512 512" role="img" aria-labelledby="title desc">
  <title id="title">Personal Cloud Library Source icon</title>
  <desc id="desc">A blue cloud surrounding a white game controller with falling blue pixels.</desc>
  <defs>
    <linearGradient id="blue" x1="0" y1="0" x2="1" y2="1">
      <stop offset="0" stop-color="#16dbe5"/>
      <stop offset="1" stop-color="#1268f3"/>
    </linearGradient>
    <linearGradient id="pad" x1="0" y1="0" x2="0" y2="1">
      <stop offset="0" stop-color="#ffffff"/>
      <stop offset="1" stop-color="#e8e8ec"/>
    </linearGradient>
    <filter id="shadow" x="-20%" y="-20%" width="140%" height="150%">
      <feDropShadow dx="0" dy="8" stdDeviation="8" flood-opacity=".25"/>
    </filter>
  </defs>
  <path d="M111 360C52 360 21 317 21 267c0-53 39-96 91-100 14-85 74-137 144-137 73 0 132 50 145 137 53 3 91 46 91 100 0 50-31 93-91 93" fill="none" stroke="url(#blue)" stroke-width="28" stroke-linecap="round"/>
  <path d="M143 183c18-12 50-14 70 1h86c21-15 54-13 70-1 22 15 35 47 42 89 8 49 2 91-27 99-26 7-46-23-64-54H192c-18 31-38 61-64 54-29-8-35-50-27-99 7-42 20-74 42-89z" fill="url(#pad)" filter="url(#shadow)"/>
  <path d="M157 236v58M128 265h58" stroke="#101217" stroke-width="20" stroke-linecap="round"/>
  <g fill="url(#blue)">
    <circle cx="339" cy="235" r="13"/><circle cx="368" cy="264" r="13"/><circle cx="310" cy="264" r="13"/><circle cx="339" cy="293" r="13"/>
    <rect x="213" y="350" width="22" height="22" rx="2"/><rect x="250" y="379" width="22" height="22" rx="2"/><rect x="287" y="354" width="18" height="18" rx="2"/><rect x="222" y="410" width="18" height="18" rx="2"/>
  </g>
</svg>
